Coordinates
version=1
nRows=21
nColumns=12
inDegrees=yes

Units are S.I. units (second, meters, Newtons, ...)
Angles are in degrees

endheader
time	SC_y	SC_z	SC_x	AC_y	AC_z	AC_x	GH_y	GH_z	GH_yy	EL_x	PS_y
       0.0              -36.57          16.13          15.73          47.52         -14.12         -9.271         -86.08          64.15         -130.0          28.53          72.86
   0.04049              -36.57          16.13          15.74          47.53         -14.12         -9.271         -86.09          64.15         -130.0          28.53          72.86
   0.08097              -36.57          16.13          15.75          47.53         -14.11         -9.271         -86.11          64.15         -129.9          28.53          72.85
    0.1215              -36.57          16.13          15.76          47.53         -14.11         -9.271         -86.12          64.16         -129.9          28.54          72.85
    0.1619              -36.57          16.13          15.77          47.54         -14.11         -9.271         -86.14          64.16         -129.9          28.54          72.85
    0.2024              -36.57          16.13          15.78          47.54          -14.1         -9.271         -86.15          64.17         -129.8          28.55          72.85
    0.2429              -36.56          16.13           15.8          47.54          -14.1          -9.27         -86.17          64.17         -129.8          28.56          72.84
    0.2834              -36.56          16.13          15.81          47.55          -14.1          -9.27         -86.19          64.18         -129.7          28.56          72.84
    0.3239              -36.56          16.13          15.83          47.55         -14.09          -9.27         -86.21          64.18         -129.7          28.57          72.84
    0.3644              -36.56          16.13          15.84          47.56         -14.09          -9.27         -86.23          64.19         -129.7          28.57          72.83
    0.4049              -36.56          16.13          15.86          47.56         -14.08          -9.27         -86.25          64.19         -129.6          28.58          72.83
    0.4454              -36.56          16.13          15.88          47.57         -14.08          -9.27         -86.27           64.2         -129.5          28.59          72.83
    0.4858              -36.55          16.13           15.9          47.58         -14.07         -9.269          -86.3           64.2         -129.5           28.6          72.82
    0.5263              -36.55          16.13          15.92          47.58         -14.07         -9.269         -86.33          64.21         -129.4          28.61          72.82
    0.5668              -36.55          16.13          15.95          47.59         -14.06         -9.269         -86.36          64.22         -129.4          28.62          72.81
    0.6073              -36.55          16.13          15.97           47.6         -14.05         -9.269         -86.39          64.23         -129.3          28.63          72.81
    0.6478              -36.54          16.13           16.0          47.61         -14.04         -9.269         -86.42          64.24         -129.2          28.64           72.8
    0.6883              -36.54          16.12          16.03          47.61         -14.03         -9.268         -86.46          64.25         -129.1          28.65           72.8
    0.7288              -36.54          16.12          16.07          47.62         -14.02         -9.268          -86.5          64.26         -129.0          28.67          72.79
    0.7692              -36.53          16.12           16.1          47.64         -14.01         -9.268         -86.55          64.27         -128.9          28.68          72.78
    0.8097              -36.53          16.12          16.14          47.65          -14.0         -9.267          -86.6          64.28         -128.8           28.7          72.77
